<svg width="175" height="60" viewBox="0 0 175 60" fill="none" xmlns="http://www.w3.org/2000/svg">
<g clip-path="url(#clip0_1_315)">
<path d="M55.0301 47.7317C54.2403 47.2688 53.2191 47.5479 52.7698 48.3377L50.8431 51.6668C50.3937 52.4566 50.6592 53.4778 51.4626 53.9339C47.7348 51.7773 43.1391 51.7757 39.4097 53.9296L30.5617 59.04C28.3218 60.32 25.5713 60.32 23.3314 59.04L3.60831 47.6432C1.38205 46.3633 0 43.9737 0 41.3934V18.6202C0 16.0399 1.38205 13.6503 3.60831 12.3567L23.3314 0.96674C25.5713 -0.326804 28.3218 -0.326804 30.5617 0.96674L50.2848 12.3567C52.5179 13.6503 53.8931 16.0331 53.8931 18.6202V41.407C53.8931 41.9653 53.2736 42.3057 52.7902 42.0265L46.6629 38.4931C46.4178 38.3433 46.2748 38.071 46.3021 37.7783C46.3293 37.5332 46.3429 37.2881 46.3429 37.0362V22.9774C46.3429 20.3971 44.9745 18.0075 42.7346 16.7139L30.5617 9.68795C28.3218 8.40802 25.5713 8.40802 23.3314 9.68795L11.1653 16.7207C8.92545 18.0143 7.5434 20.3971 7.5434 22.9842V37.0362C7.5434 39.6165 8.92545 42.0061 11.1653 43.2997L23.3314 50.312C25.5713 51.6056 28.3218 51.6056 30.5617 50.312L34.6978 47.9304C36.1118 47.1162 36.1136 45.0763 34.701 44.2596C33.9113 43.7966 33.6321 42.7822 34.0951 41.9925L36.015 38.6633C36.4779 37.8736 37.4923 37.5944 38.2821 38.0574L55.0301 47.7317Z" fill="url(#paint0_linear_1_315)"/>
<path d="M56.9503 50.7546L55.0305 54.0838C54.5811 54.8667 53.5735 55.139 52.7906 54.7033L51.463 53.9408C50.6596 53.4778 50.3941 52.4634 50.8435 51.6737L52.7702 48.3377C53.2195 47.548 54.2407 47.2688 55.0305 47.7318L56.3785 48.5079C57.141 48.9845 57.3997 49.9716 56.9503 50.7546Z" fill="url(#paint1_linear_1_315)"/>
<path d="M87.4014 15.1719C87.4014 15.9276 87.2108 16.5743 86.8363 17.1258C86.4619 17.6773 86.0262 18.113 85.5292 18.4262C84.7735 17.936 83.9701 17.5139 83.1191 17.1666C82.2681 16.8194 81.2741 16.6424 80.1439 16.6424C77.9109 16.6424 76.2089 17.33 75.0174 18.7053C73.8328 20.0805 73.2337 22.014 73.2337 24.5058C73.2337 27.0861 73.8805 29.0332 75.1672 30.3472C76.4539 31.668 78.2445 32.3215 80.532 32.3215C81.7166 32.3215 82.7242 32.1649 83.548 31.845C84.3718 31.525 85.1615 31.1642 85.9172 30.7557C86.4074 31.1642 86.7955 31.6475 87.0678 32.2126C87.3469 32.7777 87.4831 33.4381 87.4831 34.187C87.4831 34.8542 87.3129 35.4601 86.9657 36.0115C86.6185 36.563 86.0262 37.026 85.182 37.4004C84.6645 37.6319 83.9225 37.8634 82.9693 38.0948C82.0162 38.3263 80.852 38.442 79.4904 38.442C77.5228 38.442 75.6778 38.1629 73.9758 37.6183C72.2669 37.0668 70.776 36.2294 69.5028 35.0993C68.2297 33.9691 67.2289 32.5258 66.5073 30.7761C65.7856 29.0264 65.418 26.9295 65.418 24.499C65.418 22.2387 65.772 20.2439 66.4868 18.501C67.1949 16.765 68.1685 15.3012 69.3939 14.1166C70.6262 12.932 72.0627 12.0333 73.7171 11.4206C75.3715 10.8147 77.1348 10.5083 79.0138 10.5083C81.6758 10.5083 83.7454 10.944 85.2024 11.8087C86.6729 12.6937 87.4014 13.8102 87.4014 15.1719Z" fill="#27364B"/>
<path d="M90.7519 16.6464C91.0719 16.5579 91.528 16.4694 92.1203 16.3877C92.7126 16.2991 93.3594 16.2583 94.0538 16.2583C95.504 16.2583 96.5456 16.4966 97.1788 16.9732C97.8119 17.4497 98.1319 18.3688 98.1319 19.7304V29.2891C98.1319 30.4737 98.4178 31.3247 99.0033 31.8285C99.582 32.3323 100.419 32.591 101.522 32.591C102.19 32.591 102.727 32.5297 103.149 32.414C103.565 32.2982 103.892 32.1825 104.123 32.0668V16.6464C104.443 16.5579 104.899 16.4694 105.491 16.3877C106.084 16.2991 106.731 16.2583 107.425 16.2583C108.875 16.2583 109.917 16.4966 110.55 16.9732C111.183 17.4497 111.503 18.3688 111.503 19.7304V33.1561C111.503 34.6062 110.897 35.6887 109.678 36.4172C108.664 37.0571 107.452 37.5405 106.05 37.8741C104.647 38.2077 103.115 38.3711 101.468 38.3711C99.902 38.3711 98.4655 38.1941 97.1447 37.8469C95.8239 37.4996 94.687 36.9618 93.7338 36.2401C92.7807 35.5185 92.0386 34.5858 91.5212 33.442C91.0038 32.2982 90.7383 30.9162 90.7383 29.2959V16.6464H90.7519Z" fill="#27364B"/>
<path d="M126.935 38.3259C126.241 38.3259 125.601 38.2782 125.022 38.1761C124.443 38.074 123.905 37.9378 123.415 37.7608V45.4063C123.095 45.4949 122.639 45.5834 122.047 45.6651C121.454 45.7536 120.808 45.7944 120.113 45.7944C118.663 45.7944 117.621 45.5561 116.988 45.0796C116.348 44.603 116.035 43.6839 116.035 42.3223V21.1626C116.035 20.3797 116.199 19.7261 116.532 19.2087C116.866 18.6845 117.322 18.2419 117.901 17.8607C118.799 17.282 119.95 16.8122 121.352 16.4514C122.755 16.0906 124.327 15.9067 126.07 15.9067C127.806 15.9067 129.399 16.1246 130.85 16.5603C132.3 16.996 133.546 17.6632 134.587 18.5551C135.629 19.4538 136.432 20.5975 136.997 21.9864C137.562 23.3753 137.842 25.0432 137.842 26.9836C137.842 28.8354 137.562 30.4693 137.018 31.8718C136.466 33.2743 135.697 34.4589 134.717 35.412C133.729 36.3652 132.579 37.0936 131.265 37.5838C129.937 38.074 128.501 38.3259 126.935 38.3259ZM125.805 32.5049C127.255 32.5049 128.358 32.042 129.127 31.1161C129.896 30.1902 130.278 28.8149 130.278 26.9904C130.278 25.1386 129.924 23.7905 129.216 22.9531C128.508 22.1157 127.459 21.6936 126.064 21.6936C125.512 21.6936 125.008 21.7617 124.545 21.8911C124.082 22.0204 123.694 22.1702 123.374 22.3472V31.9058C123.722 32.0828 124.096 32.2258 124.504 32.3416C124.906 32.4437 125.342 32.5049 125.805 32.5049Z" fill="#27364B"/>
<path d="M141.621 16.8573C141.941 16.7688 142.397 16.6803 142.99 16.5986C143.582 16.5101 144.229 16.4692 144.923 16.4692C146.373 16.4692 147.415 16.7075 148.048 17.1841C148.681 17.6607 149.001 18.5798 149.001 19.9414V37.6221C148.681 37.7106 148.225 37.7923 147.633 37.8808C147.04 37.9693 146.394 38.0101 145.699 38.0101C144.249 38.0101 143.207 37.7719 142.574 37.2953C141.941 36.8187 141.621 35.8996 141.621 34.538V16.8573Z" fill="#27364B"/>
<path d="M149.35 10.6974C149.35 11.8003 148.989 12.7262 148.247 13.4751C147.512 14.2308 146.524 14.6053 145.306 14.6053C144.087 14.6053 143.12 14.2308 142.378 13.4751C141.643 12.7194 141.262 11.7935 141.262 10.6974C141.262 9.60131 141.636 8.66859 142.378 7.9197C143.114 7.164 144.087 6.78955 145.306 6.78955C146.524 6.78955 147.505 7.164 148.247 7.9197C148.982 8.66859 149.35 9.60131 149.35 10.6974Z" fill="url(#paint2_linear_1_315)"/>
<path d="M163.952 15.9057C165.198 15.9057 166.267 16.0623 167.166 16.3823V9.34949C167.486 9.26098 167.942 9.17248 168.534 9.09078C169.126 9.00227 169.773 8.96143 170.468 8.96143C171.911 8.96143 172.959 9.19971 173.592 9.67628C174.232 10.1528 174.546 11.0719 174.546 12.4336V33.0213C174.546 34.383 173.906 35.4723 172.632 36.2824C171.788 36.8339 170.713 37.3173 169.392 37.7394C168.071 38.1615 166.546 38.3725 164.81 38.3725C161.018 38.3725 158.063 37.4398 155.946 35.5676C153.828 33.7021 152.773 30.9108 152.773 27.2072C152.773 25.2941 153.066 23.6329 153.645 22.21C154.223 20.7939 155.013 19.6161 156.014 18.6902C157.015 17.7643 158.192 17.0699 159.554 16.6069C160.923 16.1372 162.386 15.9057 163.952 15.9057ZM167.206 22.1624C166.886 22.0194 166.539 21.9037 166.165 21.8152C165.79 21.7267 165.395 21.6858 164.994 21.6858C163.489 21.6858 162.325 22.142 161.501 23.0542C160.677 23.9665 160.262 25.3486 160.262 27.2004C160.262 29.025 160.65 30.373 161.433 31.2376C162.216 32.109 163.326 32.538 164.776 32.538C165.3 32.538 165.777 32.4767 166.212 32.3609C166.648 32.2452 166.982 32.1159 167.213 31.9729V22.1624H167.206Z" fill="#27364B"/>
<path d="M69.2877 51.879C68.8997 51.7156 68.5933 51.4842 68.3755 51.1846C68.1576 50.885 68.0282 50.5446 68.0078 50.1566H69.0971C69.1243 50.4697 69.2741 50.7285 69.5396 50.9327C69.8052 51.1301 70.1592 51.2323 70.5881 51.2323C70.9898 51.2323 71.3098 51.1438 71.5412 50.9667C71.7727 50.7897 71.8884 50.5651 71.8884 50.2927C71.8884 50.0136 71.7659 49.8094 71.5208 49.6732C71.2757 49.537 70.8945 49.4077 70.377 49.2715C69.9073 49.149 69.5192 49.0196 69.2265 48.8971C68.9269 48.7677 68.675 48.5839 68.464 48.332C68.2529 48.0801 68.144 47.7533 68.144 47.3448C68.144 47.018 68.2393 46.7253 68.4367 46.453C68.6274 46.1806 68.9065 45.9696 69.2605 45.813C69.6145 45.6564 70.023 45.5747 70.4792 45.5747C71.1804 45.5747 71.7523 45.7517 72.1812 46.1057C72.6101 46.4598 72.8484 46.9499 72.8756 47.5627H71.8204C71.7999 47.2291 71.6638 46.9636 71.4187 46.7661C71.1736 46.5687 70.8468 46.4666 70.4383 46.4666C70.0571 46.4666 69.7575 46.5483 69.5328 46.7117C69.3082 46.8751 69.1992 47.0861 69.1992 47.3516C69.1992 47.5627 69.2673 47.7329 69.4035 47.869C69.5396 48.0052 69.7098 48.1141 69.9141 48.1958C70.1183 48.2775 70.4043 48.366 70.7651 48.4682C71.2213 48.5907 71.5889 48.7133 71.8748 48.8358C72.1608 48.9583 72.4059 49.1354 72.6101 49.3736C72.8144 49.6119 72.9233 49.9251 72.9301 50.3132C72.9301 50.6604 72.8348 50.9735 72.6442 51.2527C72.4535 51.5318 72.1812 51.7497 71.8272 51.9063C71.4732 52.0628 71.0715 52.1445 70.6153 52.1445C70.1115 52.1309 69.669 52.0492 69.2877 51.879Z" fill="#27364B"/>
<path d="M80.358 49.2425H75.2859C75.3268 49.8689 75.5378 50.3591 75.9259 50.7063C76.3139 51.0603 76.7905 51.2305 77.342 51.2305C77.7981 51.2305 78.1794 51.1216 78.4857 50.9105C78.7921 50.6995 79.0032 50.4135 79.1257 50.0595H80.2627C80.0925 50.6722 79.7521 51.1624 79.2414 51.5505C78.7308 51.9385 78.0977 52.1224 77.342 52.1224C76.7429 52.1224 76.1982 51.9862 75.7285 51.7139C75.2519 51.4415 74.8774 51.0603 74.6119 50.5633C74.3396 50.0663 74.2034 49.4876 74.2034 48.834C74.2034 48.1805 74.3328 47.6018 74.5983 47.1048C74.8638 46.6078 75.2315 46.2333 75.7012 45.961C76.1778 45.6955 76.7224 45.5593 77.342 45.5593C77.9411 45.5593 78.4789 45.6887 78.9419 45.9542C79.4048 46.2197 79.7657 46.5805 80.0108 47.0367C80.2627 47.4996 80.3852 48.0171 80.3852 48.5957C80.3988 48.8068 80.3852 49.0179 80.358 49.2425ZM79.0372 47.3499C78.8602 47.0639 78.6151 46.8393 78.3155 46.6895C78.0092 46.5397 77.6756 46.4648 77.3011 46.4648C76.7701 46.4648 76.314 46.635 75.9395 46.9754C75.5651 47.3158 75.3472 47.7856 75.2995 48.3915H79.3095C79.3095 47.983 79.2142 47.6426 79.0372 47.3499Z" fill="#27364B"/>
<path d="M81.9916 47.1182C82.2572 46.628 82.618 46.2467 83.0878 45.9744C83.5575 45.7021 84.0886 45.5659 84.6945 45.5659C85.4774 45.5659 86.1174 45.7565 86.6212 46.131C87.125 46.5054 87.4586 47.0365 87.622 47.7037H86.485C86.3761 47.3156 86.165 47.0161 85.8519 46.7914C85.5387 46.5667 85.1506 46.4578 84.6877 46.4578C84.0885 46.4578 83.5984 46.662 83.2307 47.0773C82.8631 47.4926 82.6725 48.0781 82.6725 48.8338C82.6725 49.5963 82.8563 50.1886 83.2307 50.6039C83.5984 51.0192 84.0885 51.2303 84.6877 51.2303C85.1506 51.2303 85.5387 51.1213 85.845 50.9035C86.1514 50.6856 86.3693 50.3793 86.485 49.9776H87.622C87.4518 50.6244 87.1114 51.1486 86.6007 51.5366C86.0901 51.9247 85.457 52.1221 84.6877 52.1221C84.0885 52.1221 83.5507 51.986 83.0809 51.7137C82.6112 51.4413 82.2504 51.0601 81.9848 50.5699C81.7193 50.0729 81.59 49.4942 81.59 48.8338C81.5968 48.1802 81.7329 47.6084 81.9916 47.1182Z" fill="#27364B"/>
<path d="M94.8645 45.6763V52.0214H93.8092V51.0819C93.6118 51.4087 93.3258 51.6606 92.9718 51.8376C92.611 52.0214 92.2161 52.1099 91.7872 52.1099C91.2902 52.1099 90.8477 52.0078 90.4528 51.8036C90.0579 51.5993 89.7448 51.293 89.5201 50.8845C89.2954 50.476 89.1797 49.979 89.1797 49.3935V45.6763H90.2213V49.2573C90.2213 49.8837 90.3779 50.3603 90.6979 50.7007C91.0111 51.0343 91.4468 51.2045 91.9983 51.2045C92.5633 51.2045 93.0058 51.0343 93.3326 50.6802C93.6594 50.3262 93.816 49.8292 93.816 49.162V45.6763H94.8645Z" fill="#27364B"/>
<path d="M98.7044 45.8586C99.0448 45.6612 99.4669 45.5591 99.9639 45.5591V46.6484H99.6847C98.5001 46.6484 97.9146 47.2883 97.9146 48.5751V52.0268H96.8594V45.6816H97.9146V46.7097C98.0985 46.342 98.3572 46.0629 98.7044 45.8586Z" fill="#27364B"/>
<path d="M101.422 44.4359C101.286 44.2997 101.211 44.1295 101.211 43.9253C101.211 43.721 101.279 43.5576 101.422 43.4147C101.565 43.2717 101.728 43.2036 101.933 43.2036C102.123 43.2036 102.287 43.2717 102.423 43.4147C102.559 43.5576 102.627 43.721 102.627 43.9253C102.627 44.1295 102.559 44.2929 102.423 44.4359C102.287 44.5789 102.123 44.6469 101.933 44.6469C101.728 44.6469 101.558 44.5789 101.422 44.4359ZM102.443 45.675V52.0201H101.388V45.675H102.443Z" fill="#27364B"/>
<path d="M105.73 46.5451V50.2895C105.73 50.5959 105.798 50.8137 105.927 50.9431C106.056 51.0725 106.288 51.1337 106.608 51.1337H107.384V52.0256H106.431C105.845 52.0256 105.403 51.8894 105.11 51.6171C104.817 51.3448 104.668 50.9022 104.668 50.2827V46.5382H103.844V45.6668H104.668V44.0669H105.723V45.6668H107.377V46.5382H105.73V46.5451Z" fill="#27364B"/>
<path d="M114.336 45.6763L110.51 55.0102H109.42L110.673 51.9534L108.113 45.6763H109.284L111.279 50.8164L113.247 45.6763H114.336Z" fill="#27364B"/>
</g>
<defs>
<linearGradient id="paint0_linear_1_315" x1="0" y1="-0.00341797" x2="61.0798" y2="6.95513" gradientUnits="userSpaceOnUse">
<stop stop-color="#0D71EB"/>
<stop offset="1" stop-color="#2D8CFF"/>
</linearGradient>
<linearGradient id="paint1_linear_1_315" x1="50.6258" y1="47.5076" x2="57.8974" y2="48.3062" gradientUnits="userSpaceOnUse">
<stop stop-color="#0D71EB"/>
<stop offset="1" stop-color="#2D8CFF"/>
</linearGradient>
<linearGradient id="paint2_linear_1_315" x1="141.262" y1="6.78955" x2="150.208" y2="7.93954" gradientUnits="userSpaceOnUse">
<stop stop-color="#0D71EB"/>
<stop offset="1" stop-color="#2D8CFF"/>
</linearGradient>
<clipPath id="clip0_1_315">
<rect width="174.547" height="60" fill="white"/>
</clipPath>
</defs>
</svg>
