<svg width="85" height="85" viewBox="0 0 85 85" fill="none" xmlns="http://www.w3.org/2000/svg">
<rect width="85" height="85" rx="8" fill="#2487FF"/>
<path d="M28.3627 37.8599C28.8059 38.1127 30.1419 38.8637 32.3707 40.1123C34.5996 41.361 36.307 42.3224 37.4931 42.9966C37.6235 43.0705 37.9003 43.2312 38.3239 43.4788C38.7475 43.7267 39.0995 43.9269 39.3795 44.0796C39.6598 44.2323 39.9987 44.4036 40.3964 44.5932C40.794 44.7827 41.1688 44.9252 41.5207 45.0195C41.8727 45.1146 42.1985 45.1617 42.4982 45.1617H42.5179H42.5376C42.8373 45.1617 43.1633 45.1146 43.5153 45.0195C43.8671 44.9252 44.2422 44.7825 44.6394 44.5932C45.0369 44.4034 45.3757 44.2323 45.656 44.0796C45.9363 43.9269 46.288 43.7266 46.7118 43.4788C47.1352 43.231 47.4124 43.0705 47.5427 42.9966C48.7417 42.3224 51.792 40.61 56.6926 37.8596C57.6441 37.3224 58.439 36.6742 59.0775 35.9155C59.7166 35.1571 60.0358 34.3614 60.0358 33.5291C60.0358 32.8335 59.726 32.2381 59.1068 31.7429C58.4877 31.2475 57.7544 31 56.9075 31H28.1281C27.1245 31 26.3522 31.2739 25.8113 31.8218C25.2704 32.3698 25 33.0547 25 33.8766C25 34.5404 25.3586 35.2598 26.0753 36.0343C26.792 36.8088 27.5548 37.4174 28.3627 37.8599Z" fill="white"/>
<path d="M58.0804 39.5511C53.8056 41.8902 50.5597 43.7081 48.3442 45.0044C47.6013 45.4468 46.9986 45.7921 46.5358 46.0396C46.0729 46.2872 45.4573 46.5401 44.6882 46.7982C43.9193 47.0566 43.2027 47.1854 42.5379 47.1854H42.5179H42.4983C41.8336 47.1854 41.1166 47.0566 40.3477 46.7982C39.5788 46.5401 38.9628 46.2872 38.5001 46.0396C38.0376 45.7921 37.4347 45.4468 36.6918 45.0044C34.9321 43.9612 31.6932 42.1432 26.9749 39.5511C26.2317 39.1509 25.5735 38.6923 25 38.176V50.7259C25 51.4218 25.3062 52.0168 25.9189 52.5121C26.5314 53.0076 27.268 53.2552 28.1283 53.2552H56.9078C57.7679 53.2552 58.5044 53.0076 59.117 52.5121C59.7298 52.0167 60.0358 51.4218 60.0358 50.7259V38.176C59.4752 38.6816 58.8237 39.1403 58.0804 39.5511Z" fill="white"/>
</svg>
